<svg width="24" height="24" viewBox="0 0 24 24" fill="none" xmlns="http://www.w3.org/2000/svg">
<path fill-rule="evenodd" clip-rule="evenodd" d="M16.9224 8.33905C17.1611 7.98631 17.6405 7.89387 17.9933 8.13258L23.3243 11.7403C23.5768 11.867 23.75 12.1282 23.75 12.4299C23.75 12.625 23.6775 12.8032 23.5581 12.939C23.5096 13.001 23.4508 13.0566 23.3822 13.1031L17.9933 16.7499C17.6405 16.9886 17.1611 16.8962 16.9224 16.5435C16.6837 16.1907 16.7761 15.7113 17.1288 15.4726L20.4854 13.2011H1.77119C1.34527 13.2011 1 12.8558 1 12.4299C1 12.004 1.34527 11.6587 1.77119 11.6587H20.4518L17.1288 9.40995C16.7761 9.17124 16.6837 8.69178 16.9224 8.33905Z" fill="black"/>
</svg>
