<svg width="958" height="288" viewBox="0 0 958 288" fill="none" xmlns="http://www.w3.org/2000/svg">
<path d="M0 7.21875V4.6875H26.4375V7.21875H18.9375V39.4688C18.9375 42.7188 19.1875 45.5625 19.6875 48C21.25 55.4375 25.5625 59.1562 32.625 59.1562C42.75 59.0938 47.8438 52.5625 47.9062 39.5625V7.21875H40.4062V4.6875H58.7812V7.21875H51.2812V39C51.2812 43.25 50.8125 46.9062 49.875 49.9688C47.3125 57.9062 40.9062 61.875 30.6562 61.875C15.3438 61.8125 7.625 54.5625 7.5 40.125V7.21875H0ZM77.745 58.5C78.12 58.5 78.495 58.5312 78.87 58.5938C79.6825 58.7812 80.0887 59.5625 80.0887 60.9375H58.5262V58.5C59.6512 58.5 60.62 58.4062 61.4325 58.2188C63.495 57.7812 64.5262 56.1875 64.5262 53.4375V23.1562H58.5262V20.8125H74.2762L74.745 28.5938C75.37 27.2812 76.1825 26.0312 77.1825 24.8438C80.3075 21.2812 84.12 19.5 88.62 19.5C90.495 19.5 92.245 19.8438 93.87 20.5312C98.995 22.6562 101.557 27.4062 101.557 34.7812V58.5H105.214C105.589 58.5 105.964 58.5312 106.339 58.5938C107.151 58.7812 107.557 59.5625 107.557 60.9375H86.0887V58.5C87.4012 58.5 88.4012 58.375 89.0887 58.125C90.5262 57.625 91.245 56.0625 91.245 53.4375V33.375C91.245 32 91.0887 30.75 90.7762 29.625C89.8387 25.9375 87.62 24.0938 84.12 24.0938C82.9325 24.0938 81.745 24.4062 80.5575 25.0312C77.245 26.9062 75.37 30.3438 74.9325 35.3438L74.8387 58.5H77.745ZM129.146 58.5C129.459 58.5 129.74 58.5312 129.99 58.5938C130.927 58.7188 131.396 59.5 131.396 60.9375H108.896V58.5C110.146 58.5 111.146 58.4062 111.896 58.2188C113.959 57.7188 114.99 56.125 114.99 53.4375V23.1562H108.896V20.8125H125.302V58.5H129.146ZM126.24 8.0625C126.24 9.125 125.99 10.125 125.49 11.0625C124.302 13.25 122.427 14.3438 119.865 14.3438C118.865 14.3438 117.896 14.125 116.959 13.6875C114.646 12.5625 113.49 10.6875 113.49 8.0625C113.49 7.0625 113.74 6.0625 114.24 5.0625C115.427 2.75 117.302 1.59375 119.865 1.59375C120.865 1.59375 121.834 1.84375 122.771 2.34375C125.084 3.59375 126.24 5.5 126.24 8.0625ZM132.36 23.5312V21.0938H138.829V12.1875L149.141 10.2188V21.0938H162.266V23.5312H149.141V51.9375C149.141 52.5625 149.173 53.1875 149.235 53.8125C149.673 57.375 151.204 59.1562 153.829 59.1562C156.891 59.0938 159.11 56.2812 160.485 50.7188L163.016 51.0938C162.641 53.0312 162.141 54.6875 161.516 56.0625C159.766 60 156.423 61.9688 151.485 61.9688C143.61 61.6562 139.391 56.9688 138.829 47.9062V23.5312H132.36ZM184.23 21.9375C183.542 21.9375 182.824 22.0312 182.074 22.2188C177.636 23.5938 175.292 28.7188 175.042 37.5938L182.261 37.875C184.886 37.9375 186.886 37.7812 188.261 37.4062C190.386 36.6562 191.449 34.8125 191.449 31.875C191.449 30.8125 191.355 29.7812 191.167 28.7812C190.417 24.2188 188.105 21.9375 184.23 21.9375ZM201.386 51.4688C201.011 52.4062 200.542 53.3438 199.98 54.2812C196.792 59.3438 191.636 61.875 184.511 61.875C180.324 61.875 176.542 60.9375 173.167 59.0625C166.855 55.375 163.699 49.25 163.699 40.6875C163.699 35.4375 165.042 30.9688 167.73 27.2812C171.542 22.0938 177.042 19.5 184.23 19.5C188.167 19.5 191.699 20.25 194.824 21.75C199.824 24.25 202.324 27.9688 202.324 32.9062C202.324 34.2812 202.011 35.4688 201.386 36.4688C199.511 39.3438 193.886 40.6875 184.511 40.5L175.042 40.3125C175.042 40.375 175.042 40.4375 175.042 40.5C175.355 52.9375 179.167 59.1562 186.48 59.1562C187.855 59.1562 189.199 58.9375 190.511 58.5C194.449 57.25 197.324 54.6562 199.136 50.7188L201.386 51.4688ZM237.413 60.9375L236.288 51.8438C236.1 52.3438 235.85 52.875 235.538 53.4375C232.663 59.0625 228.163 61.875 222.038 61.875C218.6 61.875 215.475 60.875 212.663 58.875C207.6 55.1875 205.069 49.4688 205.069 41.7188C205.069 35.9688 206.538 31.0625 209.475 27C213.163 22 218.1 19.5 224.288 19.5C228.913 19.5 232.819 20.9688 236.006 23.9062V2.4375H227.381V0H246.413V58.5H250.819C251.319 58.5 251.725 58.5312 252.038 58.5938C252.788 58.7812 253.163 59.5625 253.163 60.9375H237.413ZM216.413 40.5938C216.413 43.1562 216.6 45.5 216.975 47.625C218.225 54.375 221.163 57.75 225.788 57.75C227.475 57.75 229.006 57.25 230.381 56.25C234.256 53.375 236.194 47.5625 236.194 38.8125C236.194 35.8125 235.913 33.1562 235.35 30.8438C233.913 25.1562 231.038 22.3125 226.725 22.3125C225.288 22.3125 223.913 22.6875 222.6 23.4375C218.475 25.875 216.413 31.5938 216.413 40.5938ZM310.121 7.21875V4.6875H329.152V7.21875H321.652V60.4688L316.684 61.4062L280.309 18V58.4062H285.746C287.059 58.5312 287.902 59.375 288.277 60.9375H268.965V58.4062H276.465V7.21875H268.965V4.6875H283.871L317.809 45.2812V7.21875H310.121ZM363.397 61.875C358.46 61.8125 355.491 58.9688 354.491 53.3438C354.054 54.4688 353.46 55.5625 352.71 56.625C349.96 60.125 346.116 61.875 341.179 61.875C339.429 61.875 337.804 61.625 336.304 61.125C331.616 59.5625 329.272 56.0938 329.272 50.7188C329.335 42.4062 337.554 38.125 353.929 37.875V31.875C353.929 30.6875 353.866 29.5938 353.741 28.5938C353.116 24.1562 350.929 21.9375 347.179 21.9375C346.179 21.9375 345.272 22.125 344.46 22.5C343.272 23.125 342.304 24.7188 341.554 27.2812C341.304 28.0312 341.116 28.5625 340.991 28.875C340.116 31.1875 338.554 32.3438 336.304 32.3438C335.741 32.3438 335.179 32.25 334.616 32.0625C332.616 31.4375 331.616 30.0625 331.616 27.9375C331.616 26.8125 331.96 25.75 332.647 24.75C334.96 21.25 340.054 19.5 347.929 19.5C349.679 19.5 351.335 19.6562 352.897 19.9688C360.522 21.4688 364.335 26.25 364.335 34.3125V54C364.335 57 365.054 58.5625 366.491 58.6875C368.366 58.625 369.491 56.4062 369.866 52.0312L372.304 52.125C372.179 53.875 371.96 55.375 371.647 56.625C370.585 60.125 367.835 61.875 363.397 61.875ZM345.491 57.9375C346.241 57.9375 347.054 57.75 347.929 57.375C350.866 56.0625 352.866 53.2812 353.929 49.0312V40.5C350.804 40.5625 348.241 40.875 346.241 41.4375C341.991 42.5625 339.866 45.25 339.866 49.5C339.866 49.8125 339.866 50.125 339.866 50.4375C340.116 55.4375 341.991 57.9375 345.491 57.9375ZM371.486 23.5312V21.0938H377.955V12.1875L388.267 10.2188V21.0938H401.392V23.5312H388.267V51.9375C388.267 52.5625 388.299 53.1875 388.361 53.8125C388.799 57.375 390.33 59.1562 392.955 59.1562C396.017 59.0938 398.236 56.2812 399.611 50.7188L402.142 51.0938C401.767 53.0312 401.267 54.6875 400.642 56.0625C398.892 60 395.549 61.9688 390.611 61.9688C382.736 61.6562 378.517 56.9688 377.955 47.9062V23.5312H371.486ZM422.513 58.5C422.825 58.5 423.106 58.5312 423.356 58.5938C424.294 58.7188 424.763 59.5 424.763 60.9375H402.263V58.5C403.513 58.5 404.513 58.4062 405.263 58.2188C407.325 57.7188 408.356 56.125 408.356 53.4375V23.1562H402.263V20.8125H418.669V58.5H422.513ZM419.606 8.0625C419.606 9.125 419.356 10.125 418.856 11.0625C417.669 13.25 415.794 14.3438 413.231 14.3438C412.231 14.3438 411.263 14.125 410.325 13.6875C408.013 12.5625 406.856 10.6875 406.856 8.0625C406.856 7.0625 407.106 6.0625 407.606 5.0625C408.794 2.75 410.669 1.59375 413.231 1.59375C414.231 1.59375 415.2 1.84375 416.138 2.34375C418.45 3.59375 419.606 5.5 419.606 8.0625ZM438.57 40.6875C438.57 45.125 438.883 48.6875 439.508 51.375C440.758 56.75 443.726 59.4375 448.414 59.4375C449.976 59.4375 451.383 59.125 452.633 58.5C456.445 56.4375 458.351 50.375 458.351 40.3125C458.351 36.0625 458.039 32.625 457.414 30C456.164 24.625 453.164 21.9375 448.414 21.9375C446.601 21.9375 445.008 22.3438 443.633 23.1562C440.258 25.3438 438.57 31.1875 438.57 40.6875ZM448.789 19.5C453.789 19.5 458.101 20.8438 461.726 23.5312C466.976 27.4062 469.601 33 469.601 40.3125C469.601 45.75 467.976 50.4375 464.726 54.375C460.601 59.375 455.07 61.875 448.133 61.875C443.07 61.875 438.664 60.375 434.914 57.375C429.789 53.25 427.226 47.5625 427.226 40.3125C427.226 35.0625 428.789 30.5625 431.914 26.8125C436.039 21.9375 441.664 19.5 448.789 19.5ZM491.19 58.5C491.565 58.5 491.94 58.5312 492.315 58.5938C493.128 58.7812 493.534 59.5625 493.534 60.9375H471.971V58.5C473.096 58.5 474.065 58.4062 474.878 58.2188C476.94 57.7812 477.971 56.1875 477.971 53.4375V23.1562H471.971V20.8125H487.721L488.19 28.5938C488.815 27.2812 489.628 26.0312 490.628 24.8438C493.753 21.2812 497.565 19.5 502.065 19.5C503.94 19.5 505.69 19.8438 507.315 20.5312C512.44 22.6562 515.003 27.4062 515.003 34.7812V58.5H518.659C519.034 58.5 519.409 58.5312 519.784 58.5938C520.596 58.7812 521.003 59.5625 521.003 60.9375H499.534V58.5C500.846 58.5 501.846 58.375 502.534 58.125C503.971 57.625 504.69 56.0625 504.69 53.4375V33.375C504.69 32 504.534 30.75 504.221 29.625C503.284 25.9375 501.065 24.0938 497.565 24.0938C496.378 24.0938 495.19 24.4062 494.003 25.0312C490.69 26.9062 488.815 30.3438 488.378 35.3438L488.284 58.5H491.19ZM537.997 59.25C542.185 59.25 544.779 57.8438 545.779 55.0312C545.966 54.4062 546.06 53.7812 546.06 53.1562C546.06 50.1562 544.091 47.625 540.154 45.5625C539.279 45.125 537.904 44.5 536.029 43.6875C531.216 41.5625 527.997 39.625 526.372 37.875C524.685 35.875 523.841 33.5625 523.841 30.9375C523.841 26 526.529 22.5938 531.904 20.7188C534.279 19.9062 536.935 19.5 539.872 19.5C544.435 19.5 548.185 20.375 551.122 22.125C551.122 20.25 551.622 19.2188 552.622 19.0312C552.935 18.9688 553.247 18.9375 553.56 18.9375V30.6562H550.747C550.497 24.9688 547.372 22.0938 541.372 22.0312C537.185 22.0312 534.591 23.3438 533.591 25.9688C533.341 26.6562 533.216 27.3438 533.216 28.0312C533.216 30.6562 535.091 32.9375 538.841 34.875C539.654 35.25 540.966 35.8438 542.779 36.6562C547.716 38.7812 550.997 40.75 552.622 42.5625C554.497 44.6875 555.435 47.1875 555.435 50.0625C555.435 55.375 552.685 58.9375 547.185 60.75C544.935 61.5 542.435 61.875 539.685 61.875C534.435 61.875 530.029 60.8438 526.466 58.7812C526.466 60.4062 526.06 61.3438 525.247 61.5938C524.872 61.6562 524.435 61.6875 523.935 61.6875V47.4375H526.935C527.06 55.25 530.747 59.1875 537.997 59.25ZM46.5938 149.562C46.5938 153.625 45.1562 157.062 42.2812 159.875C38.1562 163.875 32.25 165.875 24.5625 165.875C18 165.875 12.2812 164.281 7.40625 161.094C7.40625 162.281 7.34375 163.156 7.21875 163.719C6.90625 164.656 5.96875 165.125 4.40625 165.125V145.438H7.78125C7.96875 147.875 8.375 150.125 9 152.188C11.375 159.5 16.2812 163.156 23.7188 163.156C25.7188 163.156 27.5312 162.812 29.1562 162.125C33.2188 160.5 35.25 157.5 35.25 153.125C35.25 151.688 34.9062 150.312 34.2188 149C32.9062 146.375 29.5 143.719 24 141.031C18.0625 138.094 14.625 136.375 13.6875 135.875C7.8125 132.312 4.875 127.906 4.875 122.656C4.875 119.156 6.125 116.125 8.625 113.562C12.4375 109.688 17.9688 107.75 25.2188 107.75C30.9062 107.75 36.2188 108.969 41.1562 111.406C41.1562 110.844 41.1875 110.344 41.25 109.906C41.5 108.719 42.5 108.125 44.25 108.125V124.906H40.875C40.875 121.469 40 118.5 38.25 116C35.625 112.312 31.75 110.469 26.625 110.469C25 110.469 23.4688 110.75 22.0312 111.312C18.4062 112.688 16.5938 115.25 16.5938 119C16.5938 120.438 16.9375 121.844 17.625 123.219C18.9375 125.781 22.2812 128.406 27.6562 131.094C33.5312 133.969 36.9062 135.656 37.7812 136.156C43.6562 139.781 46.5938 144.25 46.5938 149.562ZM96.3075 162.5C96.6825 162.5 97.0262 162.531 97.3387 162.594C98.1512 162.719 98.5575 163.5 98.5575 164.938H82.995L82.5262 156.688C82.0887 157.625 81.5575 158.562 80.9325 159.5C77.9325 163.75 73.9012 165.875 68.8387 165.875C59.9637 165.812 55.495 160.625 55.4325 150.312V127.156H49.4325V124.812H65.745V151.812C65.745 152.625 65.8075 153.438 65.9325 154.25C66.5575 158.938 68.9325 161.281 73.0575 161.281C74.3075 161.281 75.5575 160.938 76.8075 160.25C80.12 158.25 81.9325 154.75 82.245 149.75L82.3387 127.156H76.7137V124.812H92.6512V162.5H96.3075ZM116.021 163.25C120.209 163.25 122.802 161.844 123.802 159.031C123.99 158.406 124.084 157.781 124.084 157.156C124.084 154.156 122.115 151.625 118.177 149.562C117.302 149.125 115.927 148.5 114.052 147.688C109.24 145.562 106.021 143.625 104.396 141.875C102.709 139.875 101.865 137.562 101.865 134.938C101.865 130 104.552 126.594 109.927 124.719C112.302 123.906 114.959 123.5 117.896 123.5C122.459 123.5 126.209 124.375 129.146 126.125C129.146 124.25 129.646 123.219 130.646 123.031C130.959 122.969 131.271 122.938 131.584 122.938V134.656H128.771C128.521 128.969 125.396 126.094 119.396 126.031C115.209 126.031 112.615 127.344 111.615 129.969C111.365 130.656 111.24 131.344 111.24 132.031C111.24 134.656 113.115 136.938 116.865 138.875C117.677 139.25 118.99 139.844 120.802 140.656C125.74 142.781 129.021 144.75 130.646 146.562C132.521 148.688 133.459 151.188 133.459 154.062C133.459 159.375 130.709 162.938 125.209 164.75C122.959 165.5 120.459 165.875 117.709 165.875C112.459 165.875 108.052 164.844 104.49 162.781C104.49 164.406 104.084 165.344 103.271 165.594C102.896 165.656 102.459 165.688 101.959 165.688V151.438H104.959C105.084 159.25 108.771 163.188 116.021 163.25ZM135.266 127.531V125.094H141.735V116.188L152.048 114.219V125.094H165.173V127.531H152.048V155.938C152.048 156.562 152.079 157.188 152.141 157.812C152.579 161.375 154.11 163.156 156.735 163.156C159.798 163.094 162.016 160.281 163.391 154.719L165.923 155.094C165.548 157.031 165.048 158.688 164.423 160.062C162.673 164 159.329 165.969 154.391 165.969C146.516 165.656 142.298 160.969 141.735 151.906V127.531H135.266ZM199.98 165.875C195.042 165.812 192.074 162.969 191.074 157.344C190.636 158.469 190.042 159.562 189.292 160.625C186.542 164.125 182.699 165.875 177.761 165.875C176.011 165.875 174.386 165.625 172.886 165.125C168.199 163.562 165.855 160.094 165.855 154.719C165.917 146.406 174.136 142.125 190.511 141.875V135.875C190.511 134.688 190.449 133.594 190.324 132.594C189.699 128.156 187.511 125.938 183.761 125.938C182.761 125.938 181.855 126.125 181.042 126.5C179.855 127.125 178.886 128.719 178.136 131.281C177.886 132.031 177.699 132.562 177.574 132.875C176.699 135.188 175.136 136.344 172.886 136.344C172.324 136.344 171.761 136.25 171.199 136.062C169.199 135.438 168.199 134.062 168.199 131.938C168.199 130.812 168.542 129.75 169.23 128.75C171.542 125.25 176.636 123.5 184.511 123.5C186.261 123.5 187.917 123.656 189.48 123.969C197.105 125.469 200.917 130.25 200.917 138.312V158C200.917 161 201.636 162.562 203.074 162.688C204.949 162.625 206.074 160.406 206.449 156.031L208.886 156.125C208.761 157.875 208.542 159.375 208.23 160.625C207.167 164.125 204.417 165.875 199.98 165.875ZM182.074 161.938C182.824 161.938 183.636 161.75 184.511 161.375C187.449 160.062 189.449 157.281 190.511 153.031V144.5C187.386 144.562 184.824 144.875 182.824 145.438C178.574 146.562 176.449 149.25 176.449 153.5C176.449 153.812 176.449 154.125 176.449 154.438C176.699 159.438 178.574 161.938 182.074 161.938ZM229.256 162.5C229.569 162.5 229.85 162.531 230.1 162.594C231.038 162.719 231.506 163.5 231.506 164.938H209.006V162.5C210.256 162.5 211.256 162.406 212.006 162.219C214.069 161.719 215.1 160.125 215.1 157.438V127.156H209.006V124.812H225.413V162.5H229.256ZM226.35 112.062C226.35 113.125 226.1 114.125 225.6 115.062C224.413 117.25 222.538 118.344 219.975 118.344C218.975 118.344 218.006 118.125 217.069 117.688C214.756 116.562 213.6 114.688 213.6 112.062C213.6 111.062 213.85 110.062 214.35 109.062C215.538 106.75 217.413 105.594 219.975 105.594C220.975 105.594 221.944 105.844 222.881 106.344C225.194 107.594 226.35 109.5 226.35 112.062ZM252.251 162.5C252.626 162.5 253.001 162.531 253.376 162.594C254.189 162.781 254.595 163.562 254.595 164.938H233.033V162.5C234.158 162.5 235.126 162.406 235.939 162.219C238.001 161.781 239.033 160.188 239.033 157.438V127.156H233.033V124.812H248.783L249.251 132.594C249.876 131.281 250.689 130.031 251.689 128.844C254.814 125.281 258.626 123.5 263.126 123.5C265.001 123.5 266.751 123.844 268.376 124.531C273.501 126.656 276.064 131.406 276.064 138.781V162.5H279.72C280.095 162.5 280.47 162.531 280.845 162.594C281.658 162.781 282.064 163.562 282.064 164.938H260.595V162.5C261.908 162.5 262.908 162.375 263.595 162.125C265.033 161.625 265.751 160.062 265.751 157.438V137.375C265.751 136 265.595 134.75 265.283 133.625C264.345 129.938 262.126 128.094 258.626 128.094C257.439 128.094 256.251 128.406 255.064 129.031C251.751 130.906 249.876 134.344 249.439 139.344L249.345 162.5H252.251ZM317.34 165.875C312.402 165.812 309.434 162.969 308.434 157.344C307.996 158.469 307.402 159.562 306.652 160.625C303.902 164.125 300.059 165.875 295.121 165.875C293.371 165.875 291.746 165.625 290.246 165.125C285.559 163.562 283.215 160.094 283.215 154.719C283.277 146.406 291.496 142.125 307.871 141.875V135.875C307.871 134.688 307.809 133.594 307.684 132.594C307.059 128.156 304.871 125.938 301.121 125.938C300.121 125.938 299.215 126.125 298.402 126.5C297.215 127.125 296.246 128.719 295.496 131.281C295.246 132.031 295.059 132.562 294.934 132.875C294.059 135.188 292.496 136.344 290.246 136.344C289.684 136.344 289.121 136.25 288.559 136.062C286.559 135.438 285.559 134.062 285.559 131.938C285.559 130.812 285.902 129.75 286.59 128.75C288.902 125.25 293.996 123.5 301.871 123.5C303.621 123.5 305.277 123.656 306.84 123.969C314.465 125.469 318.277 130.25 318.277 138.312V158C318.277 161 318.996 162.562 320.434 162.688C322.309 162.625 323.434 160.406 323.809 156.031L326.246 156.125C326.121 157.875 325.902 159.375 325.59 160.625C324.527 164.125 321.777 165.875 317.34 165.875ZM299.434 161.938C300.184 161.938 300.996 161.75 301.871 161.375C304.809 160.062 306.809 157.281 307.871 153.031V144.5C304.746 144.562 302.184 144.875 300.184 145.438C295.934 146.562 293.809 149.25 293.809 153.5C293.809 153.812 293.809 154.125 293.809 154.438C294.059 159.438 295.934 161.938 299.434 161.938ZM353.366 165.875C347.491 165.812 343.022 163.344 339.96 158.469L339.116 164.938H325.616V162.5C326.804 162.5 327.804 162.406 328.616 162.219C330.491 161.719 331.429 160.094 331.429 157.344V106.438H325.616V104H341.835V133.438C341.897 133.312 341.96 133.188 342.022 133.062C345.085 126.688 349.929 123.5 356.554 123.5C360.054 123.5 363.147 124.562 365.835 126.688C370.46 130.375 372.772 136.094 372.772 143.844C372.772 150.031 371.085 155.156 367.71 159.219C364.022 163.656 359.241 165.875 353.366 165.875ZM352.522 127.812C350.585 127.812 348.804 128.5 347.179 129.875C343.554 133 341.741 138.594 341.741 146.656C341.741 150.031 342.116 152.969 342.866 155.469C344.429 160.781 347.366 163.438 351.679 163.438C352.554 163.438 353.429 163.281 354.304 162.969C359.116 161.281 361.522 155.25 361.522 144.875C361.522 144.188 361.522 143.5 361.522 142.812C361.147 132.812 358.147 127.812 352.522 127.812ZM397.174 162.5C397.549 162.5 397.924 162.531 398.299 162.594C399.111 162.781 399.517 163.562 399.517 164.938H374.861V162.5C376.861 162.5 378.33 162.375 379.267 162.125C381.142 161.562 382.08 159.938 382.08 157.25V106.438H374.861V104H392.392V162.5H397.174ZM422.231 125.938C421.544 125.938 420.825 126.031 420.075 126.219C415.638 127.594 413.294 132.719 413.044 141.594L420.263 141.875C422.888 141.938 424.888 141.781 426.263 141.406C428.388 140.656 429.45 138.812 429.45 135.875C429.45 134.812 429.356 133.781 429.169 132.781C428.419 128.219 426.106 125.938 422.231 125.938ZM439.388 155.469C439.013 156.406 438.544 157.344 437.981 158.281C434.794 163.344 429.638 165.875 422.513 165.875C418.325 165.875 414.544 164.938 411.169 163.062C404.856 159.375 401.7 153.25 401.7 144.688C401.7 139.438 403.044 134.969 405.731 131.281C409.544 126.094 415.044 123.5 422.231 123.5C426.169 123.5 429.7 124.25 432.825 125.75C437.825 128.25 440.325 131.969 440.325 136.906C440.325 138.281 440.013 139.469 439.388 140.469C437.513 143.344 431.888 144.688 422.513 144.5L413.044 144.312C413.044 144.375 413.044 144.438 413.044 144.5C413.356 156.938 417.169 163.156 424.481 163.156C425.856 163.156 427.2 162.938 428.513 162.5C432.45 161.25 435.325 158.656 437.138 154.719L439.388 155.469ZM457.815 108.688H485.003C491.815 108.688 497.753 110.312 502.815 113.562C510.628 118.625 514.534 126.406 514.534 136.906C514.534 145.156 511.784 151.875 506.284 157.062C500.721 162.312 493.659 164.938 485.096 164.938H457.815V162.406H465.315V111.219H457.815V108.688ZM485.096 111.219H476.846V162.406H485.096C487.159 162.406 489.034 162.125 490.721 161.562C498.034 159.188 501.69 150.844 501.69 136.531C501.69 130.781 501.128 126.031 500.003 122.281C497.69 114.906 492.721 111.219 485.096 111.219ZM539.216 125.938C538.529 125.938 537.81 126.031 537.06 126.219C532.622 127.594 530.279 132.719 530.029 141.594L537.247 141.875C539.872 141.938 541.872 141.781 543.247 141.406C545.372 140.656 546.435 138.812 546.435 135.875C546.435 134.812 546.341 133.781 546.154 132.781C545.404 128.219 543.091 125.938 539.216 125.938ZM556.372 155.469C555.997 156.406 555.529 157.344 554.966 158.281C551.779 163.344 546.622 165.875 539.497 165.875C535.31 165.875 531.529 164.938 528.154 163.062C521.841 159.375 518.685 153.25 518.685 144.688C518.685 139.438 520.029 134.969 522.716 131.281C526.529 126.094 532.029 123.5 539.216 123.5C543.154 123.5 546.685 124.25 549.81 125.75C554.81 128.25 557.31 131.969 557.31 136.906C557.31 138.281 556.997 139.469 556.372 140.469C554.497 143.344 548.872 144.688 539.497 144.5L530.029 144.312C530.029 144.375 530.029 144.438 530.029 144.5C530.341 156.938 534.154 163.156 541.466 163.156C542.841 163.156 544.185 162.938 545.497 162.5C549.435 161.25 552.31 158.656 554.122 154.719L556.372 155.469ZM577.68 127.156H571.305L582.18 156.594L593.43 127.156H586.024V124.812H600.93C600.93 125.625 600.867 126.219 600.742 126.594C600.617 126.969 600.024 127.156 598.961 127.156C598.586 127.156 598.211 127.188 597.836 127.25C596.836 127.438 596.024 128.375 595.399 130.062L581.899 165.406H579.18C577.93 165.406 576.961 165.219 576.274 164.844C575.211 164.219 574.024 162.156 572.711 158.656L560.992 127.156H557.149V124.812H577.68V127.156ZM621.862 125.938C621.175 125.938 620.456 126.031 619.706 126.219C615.269 127.594 612.925 132.719 612.675 141.594L619.894 141.875C622.519 141.938 624.519 141.781 625.894 141.406C628.019 140.656 629.081 138.812 629.081 135.875C629.081 134.812 628.987 133.781 628.8 132.781C628.05 128.219 625.737 125.938 621.862 125.938ZM639.019 155.469C638.644 156.406 638.175 157.344 637.612 158.281C634.425 163.344 629.269 165.875 622.144 165.875C617.956 165.875 614.175 164.938 610.8 163.062C604.487 159.375 601.331 153.25 601.331 144.688C601.331 139.438 602.675 134.969 605.362 131.281C609.175 126.094 614.675 123.5 621.862 123.5C625.8 123.5 629.331 124.25 632.456 125.75C637.456 128.25 639.956 131.969 639.956 136.906C639.956 138.281 639.644 139.469 639.019 140.469C637.144 143.344 631.519 144.688 622.144 144.5L612.675 144.312C612.675 144.375 612.675 144.438 612.675 144.5C612.987 156.938 616.8 163.156 624.112 163.156C625.487 163.156 626.831 162.938 628.144 162.5C632.081 161.25 634.956 158.656 636.769 154.719L639.019 155.469ZM663.889 162.5C664.264 162.5 664.639 162.531 665.014 162.594C665.826 162.781 666.232 163.562 666.232 164.938H641.576V162.5C643.576 162.5 645.045 162.375 645.982 162.125C647.857 161.562 648.795 159.938 648.795 157.25V106.438H641.576V104H659.107V162.5H663.889ZM679.759 144.688C679.759 149.125 680.071 152.688 680.696 155.375C681.946 160.75 684.915 163.438 689.602 163.438C691.165 163.438 692.571 163.125 693.821 162.5C697.634 160.438 699.54 154.375 699.54 144.312C699.54 140.062 699.227 136.625 698.602 134C697.352 128.625 694.352 125.938 689.602 125.938C687.79 125.938 686.196 126.344 684.821 127.156C681.446 129.344 679.759 135.188 679.759 144.688ZM689.977 123.5C694.977 123.5 699.29 124.844 702.915 127.531C708.165 131.406 710.79 137 710.79 144.312C710.79 149.75 709.165 154.438 705.915 158.375C701.79 163.375 696.259 165.875 689.321 165.875C684.259 165.875 679.852 164.375 676.102 161.375C670.977 157.25 668.415 151.562 668.415 144.312C668.415 139.062 669.977 134.562 673.102 130.812C677.227 125.938 682.852 123.5 689.977 123.5ZM729.285 180.312H734.629C735.004 180.312 735.379 180.344 735.754 180.406C736.566 180.594 736.972 181.375 736.972 182.75H713.066V180.312C714.441 180.312 715.535 180.188 716.347 179.938C718.097 179.438 718.972 177.875 718.972 175.25V127.156H713.066V124.812H728.629L729.097 134.188C729.722 132.438 730.629 130.812 731.816 129.312C734.941 125.438 739.097 123.5 744.285 123.5C747.785 123.5 750.879 124.594 753.566 126.781C758.004 130.406 760.222 136.031 760.222 143.656C760.222 149.844 758.566 154.969 755.254 159.031C751.504 163.594 746.66 165.875 740.722 165.875C735.722 165.812 731.91 164.312 729.285 161.375V180.312ZM739.972 127.812C738.035 127.812 736.254 128.5 734.629 129.875C731.004 133.125 729.191 138.719 729.191 146.656C729.191 150.594 729.722 153.969 730.785 156.781C732.535 161.219 735.316 163.438 739.129 163.438C739.941 163.438 740.691 163.344 741.379 163.156C746.441 161.656 748.972 155.562 748.972 144.875C748.91 133.625 745.91 127.938 739.972 127.812ZM781.342 162.5C781.655 162.5 781.936 162.531 782.186 162.594C783.124 162.719 783.592 163.5 783.592 164.938H762.499V162.5C763.624 162.5 764.592 162.406 765.405 162.219C767.467 161.781 768.499 160.188 768.499 157.438V127.156H762.499V124.812H778.249L778.717 132.312C778.967 131.812 779.217 131.312 779.467 130.812C782.28 125.938 786.436 123.5 791.936 123.5C792.999 123.5 794.03 123.656 795.03 123.969C798.905 125.156 801.53 128.062 802.905 132.688C802.967 132.5 803.061 132.281 803.186 132.031C806.124 126.344 810.53 123.5 816.405 123.5C818.592 123.5 820.624 124.094 822.499 125.281C826.624 127.844 828.686 132.219 828.686 138.406V162.5H832.249C832.624 162.5 832.999 162.531 833.374 162.594C834.186 162.781 834.592 163.562 834.592 164.938H813.499V162.5C814.874 162.5 815.905 162.344 816.592 162.031C817.78 161.531 818.374 160 818.374 157.438V137.375C818.374 135.688 818.155 134.125 817.717 132.688C816.592 129.5 814.592 127.906 811.717 127.906C810.905 127.906 810.092 128.094 809.28 128.469C806.28 129.906 804.436 132.938 803.749 137.562V138.781V162.5H806.186C806.561 162.5 806.936 162.531 807.311 162.594C808.124 162.781 808.53 163.562 808.53 164.938H788.561V162.5C789.936 162.5 790.967 162.344 791.655 162.031C792.842 161.531 793.436 160 793.436 157.438V137.375C793.436 135.625 793.217 134.062 792.78 132.688C791.717 129.625 789.905 128.094 787.342 128.094C786.342 128.094 785.342 128.375 784.342 128.938C781.155 130.75 779.342 134.219 778.905 139.344L778.811 162.5H781.342ZM857.119 125.938C856.431 125.938 855.713 126.031 854.963 126.219C850.525 127.594 848.181 132.719 847.931 141.594L855.15 141.875C857.775 141.938 859.775 141.781 861.15 141.406C863.275 140.656 864.338 138.812 864.338 135.875C864.338 134.812 864.244 133.781 864.056 132.781C863.306 128.219 860.994 125.938 857.119 125.938ZM874.275 155.469C873.9 156.406 873.431 157.344 872.869 158.281C869.681 163.344 864.525 165.875 857.4 165.875C853.213 165.875 849.431 164.938 846.056 163.062C839.744 159.375 836.588 153.25 836.588 144.688C836.588 139.438 837.931 134.969 840.619 131.281C844.431 126.094 849.931 123.5 857.119 123.5C861.056 123.5 864.588 124.25 867.713 125.75C872.713 128.25 875.213 131.969 875.213 136.906C875.213 138.281 874.9 139.469 874.275 140.469C872.4 143.344 866.775 144.688 857.4 144.5L847.931 144.312C847.931 144.375 847.931 144.438 847.931 144.5C848.244 156.938 852.056 163.156 859.369 163.156C860.744 163.156 862.088 162.938 863.4 162.5C867.338 161.25 870.213 158.656 872.025 154.719L874.275 155.469ZM896.239 162.5C896.614 162.5 896.989 162.531 897.364 162.594C898.176 162.781 898.583 163.562 898.583 164.938H877.02V162.5C878.145 162.5 879.114 162.406 879.926 162.219C881.989 161.781 883.02 160.188 883.02 157.438V127.156H877.02V124.812H892.77L893.239 132.594C893.864 131.281 894.676 130.031 895.676 128.844C898.801 125.281 902.614 123.5 907.114 123.5C908.989 123.5 910.739 123.844 912.364 124.531C917.489 126.656 920.051 131.406 920.051 138.781V162.5H923.708C924.083 162.5 924.458 162.531 924.833 162.594C925.645 162.781 926.051 163.562 926.051 164.938H904.583V162.5C905.895 162.5 906.895 162.375 907.583 162.125C909.02 161.625 909.739 160.062 909.739 157.438V137.375C909.739 136 909.583 134.75 909.27 133.625C908.333 129.938 906.114 128.094 902.614 128.094C901.426 128.094 900.239 128.406 899.051 129.031C895.739 130.906 893.864 134.344 893.426 139.344L893.333 162.5H896.239ZM926.453 127.531V125.094H932.921V116.188L943.234 114.219V125.094H956.359V127.531H943.234V155.938C943.234 156.562 943.265 157.188 943.328 157.812C943.765 161.375 945.296 163.156 947.921 163.156C950.984 163.094 953.203 160.281 954.578 154.719L957.109 155.094C956.734 157.031 956.234 158.688 955.609 160.062C953.859 164 950.515 165.969 945.578 165.969C937.703 165.656 933.484 160.969 932.921 151.906V127.531H926.453ZM28.0312 268.938H1.5V266.406H9V215.219H1.5V212.688H28.0312V215.219H20.5312V266.406H25.5C26.8125 266.531 27.6562 267.375 28.0312 268.938ZM48.9637 266.5C49.3387 266.5 49.7137 266.531 50.0887 266.594C50.9012 266.781 51.3075 267.562 51.3075 268.938H29.745V266.5C30.87 266.5 31.8387 266.406 32.6512 266.219C34.7137 265.781 35.745 264.188 35.745 261.438V231.156H29.745V228.812H45.495L45.9637 236.594C46.5887 235.281 47.4012 234.031 48.4012 232.844C51.5262 229.281 55.3387 227.5 59.8387 227.5C61.7137 227.5 63.4637 227.844 65.0887 228.531C70.2137 230.656 72.7762 235.406 72.7762 242.781V266.5H76.4325C76.8075 266.5 77.1825 266.531 77.5575 266.594C78.37 266.781 78.7762 267.562 78.7762 268.938H57.3075V266.5C58.62 266.5 59.62 266.375 60.3075 266.125C61.745 265.625 62.4637 264.062 62.4637 261.438V241.375C62.4637 240 62.3075 238.75 61.995 237.625C61.0575 233.938 58.8387 232.094 55.3387 232.094C54.1512 232.094 52.9637 232.406 51.7762 233.031C48.4637 234.906 46.5887 238.344 46.1512 243.344L46.0575 266.5H48.9637ZM79.1775 231.531V229.094H85.6462V220.188L95.9587 218.219V229.094H109.084V231.531H95.9587V259.938C95.9587 260.562 95.99 261.188 96.0525 261.812C96.49 265.375 98.0212 267.156 100.646 267.156C103.709 267.094 105.927 264.281 107.302 258.719L109.834 259.094C109.459 261.031 108.959 262.688 108.334 264.062C106.584 268 103.24 269.969 98.3025 269.969C90.4275 269.656 86.2087 264.969 85.6462 255.906V231.531H79.1775ZM131.048 229.938C130.36 229.938 129.641 230.031 128.891 230.219C124.454 231.594 122.11 236.719 121.86 245.594L129.079 245.875C131.704 245.938 133.704 245.781 135.079 245.406C137.204 244.656 138.266 242.812 138.266 239.875C138.266 238.812 138.173 237.781 137.985 236.781C137.235 232.219 134.923 229.938 131.048 229.938ZM148.204 259.469C147.829 260.406 147.36 261.344 146.798 262.281C143.61 267.344 138.454 269.875 131.329 269.875C127.141 269.875 123.36 268.938 119.985 267.062C113.673 263.375 110.516 257.25 110.516 248.688C110.516 243.438 111.86 238.969 114.548 235.281C118.36 230.094 123.86 227.5 131.048 227.5C134.985 227.5 138.516 228.25 141.641 229.75C146.641 232.25 149.141 235.969 149.141 240.906C149.141 242.281 148.829 243.469 148.204 244.469C146.329 247.344 140.704 248.688 131.329 248.5L121.86 248.312C121.86 248.375 121.86 248.438 121.86 248.5C122.173 260.938 125.985 267.156 133.298 267.156C134.673 267.156 136.016 266.938 137.329 266.5C141.266 265.25 144.141 262.656 145.954 258.719L148.204 259.469ZM174.199 266.5C174.511 266.5 174.792 266.531 175.042 266.594C175.98 266.719 176.449 267.5 176.449 268.938H151.042V266.5C152.292 266.5 153.324 266.406 154.136 266.219C156.011 265.719 156.949 264.125 156.949 261.438V231.156H151.042V228.812H166.511L167.074 237.625C167.824 235.812 168.855 234.188 170.167 232.75C173.167 229.625 176.574 228.062 180.386 228.062C181.136 228.062 181.886 228.156 182.636 228.344C185.574 229.094 187.042 230.969 187.042 233.969C187.042 234.719 186.886 235.438 186.574 236.125C185.636 238.312 184.042 239.406 181.792 239.406C181.167 239.406 180.574 239.312 180.011 239.125C178.824 238.75 177.699 237.562 176.636 235.562C175.824 234.125 175.011 233.406 174.199 233.406C173.699 233.406 173.105 233.625 172.417 234.062C169.48 236.125 167.792 240.156 167.355 246.156V266.5H174.199ZM221.1 269.875C216.163 269.812 213.194 266.969 212.194 261.344C211.756 262.469 211.163 263.562 210.413 264.625C207.663 268.125 203.819 269.875 198.881 269.875C197.131 269.875 195.506 269.625 194.006 269.125C189.319 267.562 186.975 264.094 186.975 258.719C187.038 250.406 195.256 246.125 211.631 245.875V239.875C211.631 238.688 211.569 237.594 211.444 236.594C210.819 232.156 208.631 229.938 204.881 229.938C203.881 229.938 202.975 230.125 202.163 230.5C200.975 231.125 200.006 232.719 199.256 235.281C199.006 236.031 198.819 236.562 198.694 236.875C197.819 239.188 196.256 240.344 194.006 240.344C193.444 240.344 192.881 240.25 192.319 240.062C190.319 239.438 189.319 238.062 189.319 235.938C189.319 234.812 189.663 233.75 190.35 232.75C192.663 229.25 197.756 227.5 205.631 227.5C207.381 227.5 209.038 227.656 210.6 227.969C218.225 229.469 222.038 234.25 222.038 242.312V262C222.038 265 222.756 266.562 224.194 266.688C226.069 266.625 227.194 264.406 227.569 260.031L230.006 260.125C229.881 261.875 229.663 263.375 229.35 264.625C228.288 268.125 225.538 269.875 221.1 269.875ZM203.194 265.938C203.944 265.938 204.756 265.75 205.631 265.375C208.569 264.062 210.569 261.281 211.631 257.031V248.5C208.506 248.562 205.944 248.875 203.944 249.438C199.694 250.562 197.569 253.25 197.569 257.5C197.569 257.812 197.569 258.125 197.569 258.438C197.819 263.438 199.694 265.938 203.194 265.938ZM230.689 248.969C230.689 243.344 232.251 238.625 235.376 234.812C239.314 229.938 244.783 227.5 251.783 227.5C256.22 227.5 260.033 228.438 263.22 230.312C266.658 232.375 268.376 234.812 268.376 237.625C268.376 238.062 268.314 238.531 268.189 239.031C267.501 241.219 265.751 242.312 262.939 242.312C261.689 242.25 260.658 241.969 259.845 241.469C258.783 240.719 258.033 238.969 257.595 236.219C257.47 235.094 257.345 234.25 257.22 233.688C256.533 231.125 254.72 229.844 251.783 229.844C251.095 229.844 250.376 229.906 249.626 230.031C244.564 231.219 242.033 237.531 242.033 248.969C242.095 260.969 245.814 267.031 253.189 267.156C254.501 267.156 255.751 267 256.939 266.688C261.501 265.625 264.751 263.031 266.689 258.906L269.126 259.562C268.564 261.062 267.751 262.438 266.689 263.688C263.251 267.812 258.283 269.875 251.783 269.875C247.47 269.875 243.658 268.969 240.345 267.156C233.908 263.594 230.689 257.531 230.689 248.969ZM268.309 231.531V229.094H274.777V220.188L285.09 218.219V229.094H298.215V231.531H285.09V259.938C285.09 260.562 285.121 261.188 285.184 261.812C285.621 265.375 287.152 267.156 289.777 267.156C292.84 267.094 295.059 264.281 296.434 258.719L298.965 259.094C298.59 261.031 298.09 262.688 297.465 264.062C295.715 268 292.371 269.969 287.434 269.969C279.559 269.656 275.34 264.969 274.777 255.906V231.531H268.309ZM319.335 266.5C319.647 266.5 319.929 266.531 320.179 266.594C321.116 266.719 321.585 267.5 321.585 268.938H299.085V266.5C300.335 266.5 301.335 266.406 302.085 266.219C304.147 265.719 305.179 264.125 305.179 261.438V231.156H299.085V228.812H315.491V266.5H319.335ZM316.429 216.062C316.429 217.125 316.179 218.125 315.679 219.062C314.491 221.25 312.616 222.344 310.054 222.344C309.054 222.344 308.085 222.125 307.147 221.688C304.835 220.562 303.679 218.688 303.679 216.062C303.679 215.062 303.929 214.062 304.429 213.062C305.616 210.75 307.491 209.594 310.054 209.594C311.054 209.594 312.022 209.844 312.96 210.344C315.272 211.594 316.429 213.5 316.429 216.062ZM341.674 231.156H335.299L346.174 260.594L357.424 231.156H350.017V228.812H364.924C364.924 229.625 364.861 230.219 364.736 230.594C364.611 230.969 364.017 231.156 362.955 231.156C362.58 231.156 362.205 231.188 361.83 231.25C360.83 231.438 360.017 232.375 359.392 234.062L345.892 269.406H343.174C341.924 269.406 340.955 269.219 340.267 268.844C339.205 268.219 338.017 266.156 336.705 262.656L324.986 231.156H321.142V228.812H341.674V231.156ZM385.856 229.938C385.169 229.938 384.45 230.031 383.7 230.219C379.263 231.594 376.919 236.719 376.669 245.594L383.888 245.875C386.513 245.938 388.513 245.781 389.888 245.406C392.013 244.656 393.075 242.812 393.075 239.875C393.075 238.812 392.981 237.781 392.794 236.781C392.044 232.219 389.731 229.938 385.856 229.938ZM403.013 259.469C402.638 260.406 402.169 261.344 401.606 262.281C398.419 267.344 393.263 269.875 386.138 269.875C381.95 269.875 378.169 268.938 374.794 267.062C368.481 263.375 365.325 257.25 365.325 248.688C365.325 243.438 366.669 238.969 369.356 235.281C373.169 230.094 378.669 227.5 385.856 227.5C389.794 227.5 393.325 228.25 396.45 229.75C401.45 232.25 403.95 235.969 403.95 240.906C403.95 242.281 403.638 243.469 403.013 244.469C401.138 247.344 395.513 248.688 386.138 248.5L376.669 248.312C376.669 248.375 376.669 248.438 376.669 248.5C376.981 260.938 380.794 267.156 388.106 267.156C389.481 267.156 390.825 266.938 392.138 266.5C396.075 265.25 398.95 262.656 400.763 258.719L403.013 259.469ZM447.409 215.219H440.471V241.375H446.659C447.034 241.375 447.409 241.375 447.784 241.375C454.471 240.875 457.815 236.469 457.815 228.156C457.815 227.281 457.784 226.438 457.721 225.625C456.971 218.688 453.534 215.219 447.409 215.219ZM449.846 268.938H421.44V266.406H428.94V215.219H421.44V212.688H451.628C455.815 212.688 459.378 213.406 462.315 214.844C467.565 217.406 470.19 221.656 470.19 227.594C470.19 230.156 469.69 232.5 468.69 234.625C465.69 241 458.909 244.188 448.346 244.188H440.471V266.406H447.315C448.628 266.531 449.471 267.375 449.846 268.938ZM494.216 266.5C494.529 266.5 494.81 266.531 495.06 266.594C495.997 266.719 496.466 267.5 496.466 268.938H471.06V266.5C472.31 266.5 473.341 266.406 474.154 266.219C476.029 265.719 476.966 264.125 476.966 261.438V231.156H471.06V228.812H486.529L487.091 237.625C487.841 235.812 488.872 234.188 490.185 232.75C493.185 229.625 496.591 228.062 500.404 228.062C501.154 228.062 501.904 228.156 502.654 228.344C505.591 229.094 507.06 230.969 507.06 233.969C507.06 234.719 506.904 235.438 506.591 236.125C505.654 238.312 504.06 239.406 501.81 239.406C501.185 239.406 500.591 239.312 500.029 239.125C498.841 238.75 497.716 237.562 496.654 235.562C495.841 234.125 495.029 233.406 494.216 233.406C493.716 233.406 493.122 233.625 492.435 234.062C489.497 236.125 487.81 240.156 487.372 246.156V266.5H494.216ZM519.086 248.688C519.086 253.125 519.399 256.688 520.024 259.375C521.274 264.75 524.242 267.438 528.93 267.438C530.492 267.438 531.899 267.125 533.149 266.5C536.961 264.438 538.867 258.375 538.867 248.312C538.867 244.062 538.555 240.625 537.93 238C536.68 232.625 533.68 229.938 528.93 229.938C527.117 229.938 525.524 230.344 524.149 231.156C520.774 233.344 519.086 239.188 519.086 248.688ZM529.305 227.5C534.305 227.5 538.617 228.844 542.242 231.531C547.492 235.406 550.117 241 550.117 248.312C550.117 253.75 548.492 258.438 545.242 262.375C541.117 267.375 535.586 269.875 528.649 269.875C523.586 269.875 519.18 268.375 515.43 265.375C510.305 261.25 507.742 255.562 507.742 248.312C507.742 243.062 509.305 238.562 512.43 234.812C516.555 229.938 522.18 227.5 529.305 227.5ZM571.144 216.062C571.144 217.125 570.894 218.125 570.394 219.062C569.206 221.25 567.331 222.344 564.769 222.344C563.769 222.344 562.8 222.125 561.862 221.688C559.55 220.562 558.394 218.688 558.394 216.062C558.394 215.062 558.644 214.062 559.144 213.062C560.331 210.75 562.206 209.594 564.769 209.594C565.769 209.594 566.737 209.844 567.675 210.344C569.987 211.594 571.144 213.5 571.144 216.062ZM553.706 228.812H570.487V267.062C570.487 270.875 570.05 274.219 569.175 277.094C566.987 283.719 562.644 287.031 556.144 287.031C553.956 287.031 552.019 286.656 550.331 285.906C547.394 284.656 545.925 282.719 545.925 280.094C545.925 279.719 545.987 279.312 546.112 278.875C546.612 277 547.956 276.062 550.144 276.062C551.644 276.062 552.8 276.562 553.612 277.562C553.925 278.062 554.394 279.5 555.019 281.875C555.456 283.688 556.3 284.594 557.55 284.594C559.425 284.531 560.394 282.531 560.456 278.594C560.456 277.719 560.394 275.969 560.269 273.344C560.144 269.281 560.081 266.188 560.081 264.062V231.156H553.706V228.812ZM597.326 229.938C596.639 229.938 595.92 230.031 595.17 230.219C590.732 231.594 588.389 236.719 588.139 245.594L595.357 245.875C597.982 245.938 599.982 245.781 601.357 245.406C603.482 244.656 604.545 242.812 604.545 239.875C604.545 238.812 604.451 237.781 604.264 236.781C603.514 232.219 601.201 229.938 597.326 229.938ZM614.482 259.469C614.107 260.406 613.639 261.344 613.076 262.281C609.889 267.344 604.732 269.875 597.607 269.875C593.42 269.875 589.639 268.938 586.264 267.062C579.951 263.375 576.795 257.25 576.795 248.688C576.795 243.438 578.139 238.969 580.826 235.281C584.639 230.094 590.139 227.5 597.326 227.5C601.264 227.5 604.795 228.25 607.92 229.75C612.92 232.25 615.42 235.969 615.42 240.906C615.42 242.281 615.107 243.469 614.482 244.469C612.607 247.344 606.982 248.688 597.607 248.5L588.139 248.312C588.139 248.375 588.139 248.438 588.139 248.5C588.451 260.938 592.264 267.156 599.576 267.156C600.951 267.156 602.295 266.938 603.607 266.5C607.545 265.25 610.42 262.656 612.232 258.719L614.482 259.469ZM618.165 248.969C618.165 243.344 619.727 238.625 622.852 234.812C626.79 229.938 632.259 227.5 639.259 227.5C643.696 227.5 647.509 228.438 650.696 230.312C654.134 232.375 655.852 234.812 655.852 237.625C655.852 238.062 655.79 238.531 655.665 239.031C654.977 241.219 653.227 242.312 650.415 242.312C649.165 242.25 648.134 241.969 647.321 241.469C646.259 240.719 645.509 238.969 645.071 236.219C644.946 235.094 644.821 234.25 644.696 233.688C644.009 231.125 642.196 229.844 639.259 229.844C638.571 229.844 637.852 229.906 637.102 230.031C632.04 231.219 629.509 237.531 629.509 248.969C629.571 260.969 633.29 267.031 640.665 267.156C641.977 267.156 643.227 267 644.415 266.688C648.977 265.625 652.227 263.031 654.165 258.906L656.602 259.562C656.04 261.062 655.227 262.438 654.165 263.688C650.727 267.812 645.759 269.875 639.259 269.875C634.946 269.875 631.134 268.969 627.821 267.156C621.384 263.594 618.165 257.531 618.165 248.969ZM655.785 231.531V229.094H662.254V220.188L672.566 218.219V229.094H685.691V231.531H672.566V259.938C672.566 260.562 672.597 261.188 672.66 261.812C673.097 265.375 674.629 267.156 677.254 267.156C680.316 267.094 682.535 264.281 683.91 258.719L686.441 259.094C686.066 261.031 685.566 262.688 684.941 264.062C683.191 268 679.847 269.969 674.91 269.969C667.035 269.656 662.816 264.969 662.254 255.906V231.531H655.785Z" fill="black"/>
</svg>
